<svg width="36" height="36" viewBox="0 0 36 36" fill="none" xmlns="http://www.w3.org/2000/svg">
<g clip-path="url(#clip0_70_30)">
<path d="M30.375 8.4375H5.625" stroke="black" stroke-width="3.375" stroke-linecap="round" stroke-linejoin="round"/>
<path d="M14.625 14.625V23.625" stroke="black" stroke-width="3.375" stroke-linecap="round" stroke-linejoin="round"/>
<path d="M21.375 14.625V23.625" stroke="black" stroke-width="3.375" stroke-linecap="round" stroke-linejoin="round"/>
<path d="M28.125 8.4375V29.25C28.125 29.5484 28.0065 29.8345 27.7955 30.0455C27.5845 30.2565 27.2984 30.375 27 30.375H9C8.70163 30.375 8.41548 30.2565 8.20451 30.0455C7.99353 29.8345 7.875 29.5484 7.875 29.25V8.4375" stroke="black" stroke-width="3.375" stroke-linecap="round" stroke-linejoin="round"/>
<path d="M23.625 8.4375V5.0625C23.625 4.46576 23.3879 3.89347 22.966 3.47151C22.544 3.04955 21.9717 2.8125 21.375 2.8125H14.625C14.0283 2.8125 13.456 3.04955 13.034 3.47151C12.6121 3.89347 12.375 4.46576 12.375 5.0625V8.4375" stroke="black" stroke-width="3.375" stroke-linecap="round" stroke-linejoin="round"/>
</g>
<defs>
<clipPath id="clip0_70_30">
<rect width="36" height="36" fill="white"/>
</clipPath>
</defs>
</svg>
